<svg width="547" height="552" viewBox="0 0 547 552" fill="none" xmlns="http://www.w3.org/2000/svg">
<path fill-rule="evenodd" clip-rule="evenodd" d="M216.184 82C209.2 111.251 182.89 133 151.5 133C118.714 133 91.4688 109.273 86 78.0531V82H10C4.47715 82 0 77.5229 0 72V67C0 61.4771 4.47715 57 10 57H85.6734C90.2831 24.7732 117.999 0 151.5 0C185.001 0 212.717 24.7732 217.327 57H292C297.523 57 302 61.4772 302 67V72C302 77.5229 297.523 82 292 82H216.184ZM151.5 107.703C174.42 107.703 193 88.9658 193 65.8517C193 42.7376 174.42 24 151.5 24C128.58 24 110 42.7376 110 65.8517C110 88.9658 128.58 107.703 151.5 107.703ZM107 236C107 230.477 111.477 226 117 226H183C188.523 226 193 230.477 193 236V241C193 246.523 188.523 251 183 251H117C111.477 251 107 246.523 107 241V236ZM140 542C140 547.523 144.477 552 150 552H155C160.523 552 165 547.523 165 542V504V477V357C165 351.477 160.523 347 155 347H150C144.477 347 140 351.477 140 357V477V504V542ZM104 135C57.0558 135 19 173.056 19 220V419C19 463.689 53.4874 500.323 97.2995 503.74C98.1733 503.911 99.0762 504 100 504C107.732 504 114 497.732 114 490C114 482.268 107.732 476 100 476C99.8441 476 99.6889 476.003 99.5342 476.008C68.5489 470.58 45 443.54 45 411V224C45 187.549 74.5492 158 111 158H192C228.451 158 258 187.549 258 224V411C258 443.54 234.451 470.58 203.466 476.008C203.415 476.006 203.364 476.005 203.313 476.003C203.209 476.001 203.105 476 203 476C195.268 476 189 482.268 189 490C189 496.702 193.71 502.304 200 503.678V503.948C200.425 503.933 200.849 503.915 201.273 503.895C201.839 503.964 202.415 504 203 504C204.395 504 205.741 503.796 207.012 503.417C249.238 498.462 282 462.557 282 419V220C282 173.056 243.944 135 197 135H104ZM296.63 276C292.33 293.278 290 311.773 290 331C290 426.545 347.531 504 418.5 504C434.297 504 449.429 500.162 463.408 493.141C463.321 492.998 463.235 492.853 463.149 492.707C463.047 492.534 462.945 492.36 462.844 492.184C459.517 486.396 456.638 478.873 454.38 470.084C450.989 456.881 449 440.821 449 423.5C449 378.489 462.431 342 479 342C493.651 342 505.849 370.531 508.476 408.257C508.82 413.195 509 418.29 509 423.5C509 429.793 508.737 435.92 508.24 441.803C507.785 447.198 507.132 452.388 506.304 457.315C531.349 425.747 547 380.834 547 331C547 311.773 544.67 293.278 540.37 276H529H510.713H326.287H302H296.63ZM318.968 301H518.032C520.616 313.181 522 326.044 522 339.342C522 347.702 521.453 355.89 520.405 363.845C510.98 336.704 495.5 319 478 319C449.281 319 426 366.682 426 425.5C426 444.346 428.39 462.048 432.583 477.406C427.978 478.249 423.277 478.685 418.5 478.685C361.339 478.685 315 416.299 315 339.342C315 326.044 316.384 313.181 318.968 301ZM467 542C467 547.523 471.477 552 477 552H482C487.523 552 492 547.523 492 542V371C492 365.477 487.523 361 482 361H477C471.477 361 467 365.477 467 371V542ZM141.832 232.203L140.109 241.309L138.009 232.203H135.776L133.667 241.291L131.936 232.203H129.308L132.146 245H134.801L136.884 236.439L138.967 245H141.621L144.46 232.203H141.832ZM151.769 239.454H156.832V237.389H151.769V234.339H157.693V232.203H149.133V245H157.711V242.882H151.769V239.454ZM162.498 232.203V245H167.472C168.925 244.988 170.044 244.666 170.83 244.033C171.615 243.4 172.007 242.469 172.007 241.238C172.007 240.518 171.817 239.908 171.436 239.41C171.061 238.912 170.545 238.581 169.889 238.417C170.463 238.194 170.912 237.846 171.234 237.371C171.556 236.891 171.717 236.337 171.717 235.71C171.717 234.562 171.316 233.691 170.513 233.1C169.71 232.502 168.533 232.203 166.98 232.203H162.498ZM165.134 242.882V239.428H167.551C168.764 239.445 169.371 240.04 169.371 241.212C169.371 241.733 169.195 242.144 168.843 242.442C168.498 242.735 168.014 242.882 167.393 242.882H165.134ZM167.085 237.564H165.134V234.339H166.98C167.707 234.339 168.237 234.468 168.571 234.726C168.911 234.978 169.081 235.394 169.081 235.974C169.081 237.011 168.416 237.541 167.085 237.564Z" fill="#C4C4C4"/>
</svg>
